<svg viewBox="0 0 512 512" xml:space="preserve" xmlns="http://www.w3.org/2000/svg"><circle cx="256" cy="256" fill="#000000" r="256" class="fill-00ab6b"></circle><path d="M202.6 171.2v209.5c0 3-.7 5.5-2.2 7.6-1.5 2.1-3.7 3.1-6.5 3.1-2 0-4-.5-5.9-1.4l-83-41.6c-2.5-1.2-4.6-3.2-6.3-6S96 336.8 96 334V130.5c0-2.4.6-4.4 1.8-6.1 1.2-1.7 2.9-2.5 5.2-2.5 1.7 0 4.3.9 7.9 2.7l91.3 45.7c.2.3.4.6.4.9zm11.4 18 95.4 154.6-95.4-47.4V189.2zm202 3.2v188.2c0 3-.8 5.4-2.5 7.2s-3.9 2.8-6.8 2.8-5.7-.8-8.4-2.3L319.6 349 416 192.4zm-.5-21.4c0 .4-15.3 25.3-45.8 74.9S321.2 324.5 316 333l-69.6-113.2 57.9-94.1c2-3.3 5.1-5 9.3-5 1.7 0 3.2.4 4.6 1.1l96.6 48.2c.4.2.7.5.7 1z" fill="#ffffff" class="fill-ffffff"></path></svg>