<?xml version="1.0" ?><!DOCTYPE svg  PUBLIC '-//W3C//DTD SVG 1.1//EN'  'http://www.w3.org/Graphics/SVG/1.1/DTD/svg11.dtd'><svg height="512px" style="enable-background:new 0 0 512 512;" version="1.1" viewBox="0 0 512 512" width="512px" xml:space="preserve" xmlns="http://www.w3.org/2000/svg" xmlns:xlink="http://www.w3.org/1999/xlink"><g id="_x37_1_x2C__mail_x2C__contract_x2C__letter_x2C__email_x2C__briefing"><g><path d="M257.62,99.893h-39.627v41.436h39.627V99.893z M214.159,92.223h47.297    c2.088,0,3.834,1.746,3.834,3.836v49.104c0,2.12-1.746,3.835-3.834,3.835h-47.297c-2.12,0-3.834-1.715-3.834-3.835V96.059    C210.325,93.969,212.039,92.223,214.159,92.223z M176.653,205.71v-73.954l-75.7,73.954H176.653z M358.887,131.477    c0,16.99,0.094,34.014,0.125,51.037v1.154v1.153v1.153v1.185v1.153v1.153v1.153v1.186v1.153v1.153v1.154l0.029,10.444h75.856    L358.887,131.477z M359.041,213.38l0.096,34.171l0.061,34.046v0.124v0.094l0,0v0.094l0,0l-0.031,0.094l0,0v0.094l0,0v0.094h-0.029    v0.094l0,0v0.094h-0.032v0.093l0,0l-0.031,0.094l0,0l-0.032,0.093l0,0v0.094h-0.029l-0.031,0.094l0,0v0.094h-0.031L358.917,283    l0,0l-0.03,0.094l0,0l-0.031,0.094l0,0l-0.031,0.093l0,0l-0.031,0.063h-0.032l-0.03,0.094l0,0l-0.031,0.093l0,0l-0.063,0.063l0,0    l-0.03,0.094h-0.032l-0.031,0.063l0,0l-0.061,0.063l0,0l-0.032,0.094h-0.032l-0.031,0.063l0,0l-0.061,0.093l0,0l-0.063,0.063l0,0    l-0.062,0.062l0,0l-0.063,0.063l0,0l-0.062,0.063l0,0l-0.063,0.062l0,0l-0.063,0.063l0,0l-0.062,0.063h-0.031l-0.062,0.063l0,0    l-0.063,0.063l0,0l-0.062,0.063h-0.031l-0.063,0.063l0,0l-0.061,0.031l0,0l-0.096,0.063l0,0l-0.061,0.03l0,0l-0.094,0.062l0,0    l-0.063,0.064h-0.032l-0.062,0.03l0,0l-0.095,0.031l0,0l-0.062,0.03h-0.031l-0.062,0.063l0,0l-0.095,0.032l0,0l-0.093,0.03l0,0    l-0.093,0.031l0,0l-0.063,0.031l0,0l-0.093,0.031l0,0h-0.094l0,0l-0.094,0.031l0,0l-0.094,0.031l0,0h-0.093l0,0l-0.095,0.031l0,0    h-0.094l0,0l-0.092,0.031h-0.032h-0.063h-0.029h-0.095l0,0h-0.093l0,0h-0.094l0,0H180.487c-2.12,0-3.834-1.715-3.834-3.835V213.38    h-75.7l134.219,131.071l0.156,0.156l32.612,31.863l32.611-31.863l0.063-0.063L434.897,213.38H359.041z M303.702,352.215    l-33.11,32.331c-1.468,1.434-3.836,1.434-5.333,0l-33.079-32.331l-127.735,83.182h326.96L303.702,352.215z M95.403,432.154    l131.166-85.396L95.403,218.617V432.154z M440.448,218.648L309.282,346.758l131.166,85.396V218.648z M214.159,168.141    c-2.12,0-3.834-1.715-3.834-3.835s1.714-3.835,3.834-3.835h68.248c2.121,0,3.836,1.715,3.836,3.835s-1.715,3.835-3.836,3.835    H214.159z M214.159,200.472c-2.12,0-3.834-1.714-3.834-3.835c0-2.119,1.714-3.834,3.834-3.834h106.566    c2.088,0,3.805,1.715,3.805,3.834c0,2.121-1.717,3.835-3.805,3.835H214.159z M214.159,214.845c-2.12,0-3.834-1.745-3.834-3.835    c0-2.119,1.714-3.835,3.834-3.835h106.566c2.088,0,3.805,1.716,3.805,3.835c0,2.09-1.717,3.835-3.805,3.835H214.159z     M214.159,229.187c-2.12,0-3.834-1.714-3.834-3.804c0-2.119,1.714-3.835,3.834-3.835h106.566c2.088,0,3.805,1.716,3.805,3.835    c0,2.09-1.717,3.804-3.805,3.804H214.159z M214.159,243.56c-2.12,0-3.834-1.714-3.834-3.835c0-2.089,1.714-3.835,3.834-3.835    h68.248c2.121,0,3.836,1.746,3.836,3.835c0,2.121-1.715,3.835-3.836,3.835H214.159z M214.159,257.933    c-2.12,0-3.834-1.715-3.834-3.835c0-2.119,1.714-3.835,3.834-3.835h68.248c2.121,0,3.836,1.716,3.836,3.835    c0,2.12-1.715,3.835-3.836,3.835H214.159z M473.341,458.001c2.12,0,3.834,1.714,3.834,3.803c0,2.121-1.714,3.835-3.834,3.835    h-68.187c-2.119,0-3.836-1.714-3.836-3.835c0-2.089,1.717-3.803,3.836-3.803H473.341z M388.662,478.36    c2.119,0,3.834,1.714,3.834,3.804c0,2.119-1.715,3.835-3.834,3.835H221.206c-2.122,0-3.836-1.716-3.836-3.835    c0-2.09,1.714-3.804,3.836-3.804H388.662z M38.659,485.999c-2.12,0-3.834-1.716-3.834-3.835c0-2.09,1.714-3.804,3.834-3.804    h68.186c2.12,0,3.834,1.714,3.834,3.804c0,2.119-1.714,3.835-3.834,3.835H38.659z M167.018,485.999    c-2.12,0-3.834-1.716-3.834-3.835c0-2.09,1.714-3.804,3.834-3.804h31.085c2.12,0,3.834,1.714,3.834,3.804    c0,2.119-1.714,3.835-3.834,3.835H167.018z M123.338,465.639c-2.12,0-3.836-1.714-3.836-3.835c0-2.089,1.716-3.803,3.836-3.803    h259.617c2.12,0,3.836,1.714,3.836,3.803c0,2.121-1.716,3.835-3.836,3.835H123.338z M267.41,26.002l24.443,26.844h-47.827    L267.41,26.002z M321.535,58.925c-45.737,0-91.475,0-137.214,0c0,72.956,0,145.912,0,218.837h167.206l-0.029-17.615    c-0.095-45.926-0.156-91.85-0.251-137.775v-0.093l-0.062-33.704L321.535,58.925z" style="fill-rule:evenodd;clip-rule:evenodd;"/></g></g><g id="Layer_1"/></svg>