<?xml version="1.0" ?><!DOCTYPE svg  PUBLIC '-//W3C//DTD SVG 1.1//EN'  'http://www.w3.org/Graphics/SVG/1.1/DTD/svg11.dtd'><svg height="512px" style="enable-background:new 0 0 512 512;" version="1.1" viewBox="0 0 512 512" width="512px" xml:space="preserve" xmlns="http://www.w3.org/2000/svg" xmlns:xlink="http://www.w3.org/1999/xlink"><g id="_x37_5_x2C__Camera_x2C__photography_x2C__capture_x2C__photo_x2C__apeture"><g><path d="M384.297,260.269l-17.047-9.84l-17.048,9.84v19.708l17.048,9.841    l17.047-9.841V260.269z M368.941,243.582l20.457,11.809c1.08,0.609,1.689,1.746,1.689,2.938l0.027,23.617    c0,1.357-0.831,2.55-1.994,3.076l-20.18,11.67c-1.081,0.61-2.385,0.582-3.382,0l-20.457-11.809    c-1.081-0.638-1.691-1.773-1.691-2.938l-0.028-23.617c0-1.386,0.832-2.551,1.997-3.104l20.18-11.642    C366.641,242.945,367.914,243,368.941,243.582z M340.168,98.723v19.403h90.725V98.723    C400.651,98.723,370.41,98.723,340.168,98.723z M367.139,91.904h36.812V72.5h-36.812V91.904z M240.186,118.126h37.143    l-6.791-21.454h-23.533L240.186,118.126z M90.726,341.707c-1.831-1.829-4.38-2.967-7.181-2.967c-2.799,0-5.349,1.138-7.179,2.967    c-1.83,1.857-2.965,4.38-2.965,7.18c0,2.799,1.135,5.35,2.965,7.179s4.38,2.966,7.179,2.966c2.716,0,5.211-1.053,7.014-2.799    l0.167-0.167c1.828-1.829,2.965-4.38,2.965-7.179C93.691,346.087,92.554,343.564,90.726,341.707z M83.545,331.923    c4.657,0,8.926,1.911,11.975,4.989c3.078,3.049,4.99,7.289,4.99,11.975c0,4.685-1.913,8.925-4.962,12.002l-0.221,0.193    c-3.05,2.938-7.207,4.77-11.781,4.77c-4.684,0-8.925-1.887-12.002-4.963c-3.048-3.077-4.961-7.317-4.961-12.002    c0-4.686,1.913-8.926,4.961-11.975C74.62,333.834,78.861,331.923,83.545,331.923z M83.324,379.682    c7.623,0,15.217-2.826,21.122-8.481l1.276-3.077c5.099-12.307,21.509-51.973,31.489-72.789    c-20.929,10.062-60.927,26.582-73.013,31.571l-2.855,1.192c-5.654,5.904-8.481,13.499-8.481,21.121    c0,7.789,2.965,15.578,8.925,21.537C67.719,376.717,75.535,379.682,83.324,379.682z M109.712,375.58    c-7.29,7.29-16.825,10.921-26.388,10.921c-9.535,0-19.07-3.631-26.361-10.921c-7.29-7.29-10.92-16.825-10.92-26.361    c0-9.563,3.63-19.098,10.92-26.389c0.389-0.387,0.86-0.664,1.332-0.831l3.354-1.386c14.331-5.904,67.856-28.023,81.715-36.091    c1.635-0.942,3.714-0.359,4.657,1.247c0.611,1.082,0.583,2.385,0,3.41c-8.038,13.832-29.992,66.969-36.034,81.549l-1.553,3.742    C110.266,374.887,110.017,375.275,109.712,375.58z M168.338,98.723h-16.437v19.403h16.437V98.723z M123.655,98.723H90.364v19.403    h33.291V98.723z M60.012,124.945L60.012,124.945h-0.359h-0.362l0,0l-0.359,0.026l0,0h-0.36l0,0L58.21,125l0,0l-0.36,0.027l0,0    l-0.36,0.027l0,0l-0.333,0.029h-0.028l-0.332,0.026l-0.028,0.028l-0.333,0.027H56.41l-0.333,0.057h-0.028l-0.305,0.026    l-0.054,0.028l-0.306,0.055h-0.028l-0.304,0.056h-0.056l-0.305,0.056h-0.055l-0.277,0.055l-0.057,0.028l-0.305,0.056l-0.054,0.027    l-0.277,0.056h-0.056l-0.277,0.083h-0.083L53,125.832h-0.084l-0.277,0.082l-0.055,0.028l-0.277,0.056l-0.056,0.027l-0.277,0.084    l-0.056,0.027l-0.276,0.055l-0.084,0.028l-0.249,0.083l-0.083,0.027l-0.223,0.084l-0.11,0.027l-0.221,0.082l-0.112,0.029    l-0.221,0.082l-0.083,0.027l-0.249,0.084l-0.084,0.055l-0.221,0.084l-0.111,0.027l-0.223,0.111l-0.083,0.027l-0.223,0.083    l-0.111,0.056l-0.221,0.083l-0.084,0.056l-0.221,0.083l-0.11,0.056l-0.195,0.083l-0.111,0.056l-0.193,0.111l-0.112,0.027    l-0.193,0.111l-0.139,0.055l-0.167,0.084l-0.138,0.083l-0.167,0.082l-0.139,0.056l-0.165,0.111l-0.138,0.055l-0.167,0.111    l-0.139,0.056l-0.167,0.11l-0.139,0.056l-0.139,0.111l-0.139,0.083l-0.167,0.083l-0.139,0.083l-0.139,0.111l-0.139,0.083    l-0.165,0.083l-0.139,0.084l-0.139,0.11l-0.139,0.083l-0.167,0.084l-0.11,0.109l-0.167,0.084l-0.139,0.11l-0.139,0.083    l-0.138,0.111l-0.139,0.083l-0.139,0.11l-0.139,0.111l-0.139,0.084l-0.11,0.11l-0.167,0.11l-0.11,0.084l-0.139,0.139l-0.139,0.083    l-0.139,0.11l-0.11,0.111l-0.167,0.111l-0.11,0.082l-0.139,0.139l-0.111,0.084l-0.138,0.138l-0.112,0.083l-0.165,0.139    l-0.084,0.084l-0.167,0.139l-0.083,0.11l-0.167,0.139l-0.499,0.472l-0.083,0.082l-0.056,0.056l-0.11,0.112l-0.223,0.221v0.027    l-0.719,0.721v0.028c-2.107,2.3-3.936,5.128-5.184,8.066l0,0l-0.11,0.305h-0.028l-0.249,0.638v0.027l-0.112,0.305l0,0    l-0.221,0.666l0,0l-0.111,0.332h-0.028l-0.083,0.332l0,0l-0.112,0.334l0,0l-0.11,0.332l0,0l-0.083,0.359l0,0l-0.083,0.334    l-0.084,0.332l0,0l-0.083,0.333l-0.084,0.36l-0.083,0.333l0,0l-0.056,0.36l0,0l-0.083,0.332v0.027l-0.056,0.333l0,0l-0.054,0.36    l-0.056,0.361l-0.028,0.332v0.027c-0.139,1.081-0.221,2.135-0.249,3.215v0.029v0.359l0,0v7.623H179.01    c1.885,0,3.41,1.524,3.41,3.408c0,1.887-1.525,3.41-3.41,3.41H31.517v31.379h195.586v-74.314    C171.414,124.945,115.699,124.945,60.012,124.945z M235.529,124.945h-0.056h-1.551v77.724c0,1.884-1.525,3.409-3.41,3.409H31.517    v166.148c0,7.844,3.216,14.967,8.372,20.123c5.183,5.184,12.306,8.371,20.123,8.371h397.491c7.844,0,14.969-3.188,20.124-8.371    c5.155-5.156,8.372-12.279,8.372-20.123V153.439c0-7.845-3.217-14.969-8.372-20.123c-5.155-5.157-12.28-8.371-20.124-8.371    C383.521,124.945,309.539,124.945,235.529,124.945z M314.112,118.126l-20.512-49.728h-69.686l-20.511,49.728h27.109h0.028h0.054    h2.439l8.177-25.751c0.388-1.47,1.72-2.522,3.299-2.522h28.523c1.44,0,2.771,0.942,3.243,2.384l8.205,25.89H314.112z     M430.283,207.104c-16.133-16.133-38.418-26.111-63.033-26.111c-24.614,0-46.901,9.979-63.033,26.111    c-16.133,16.133-26.084,38.419-26.084,63.033s9.951,46.9,26.084,63.006c16.132,16.132,38.419,26.11,63.033,26.11    c24.615,0,46.9-9.979,63.006-26.083c16.131-16.133,26.11-38.419,26.11-63.033S446.387,223.208,430.283,207.104z M367.25,174.174    c26.472,0,50.448,10.754,67.827,28.106c17.381,17.407,28.108,41.385,28.108,67.856s-10.728,50.449-28.108,67.828    c-17.379,17.381-41.355,28.107-67.827,28.107c-26.499,0-50.477-10.727-67.857-28.107c-17.351-17.352-28.079-41.356-28.079-67.828    c0-26.5,10.729-50.504,28.079-67.856C316.773,184.928,340.751,174.174,367.25,174.174z M411.323,226.035    c-11.281-11.281-26.86-18.239-44.073-18.239c-17.131,0-32.652,6.902-43.908,18.073l-0.164,0.166    c-11.283,11.282-18.268,26.888-18.268,44.102s6.957,32.791,18.238,44.074c11.281,11.281,26.889,18.266,44.102,18.266    s32.792-6.984,44.073-18.266c11.281-11.283,18.268-26.86,18.268-44.074c0-17.158-6.903-32.682-18.074-43.936L411.323,226.035z     M452.735,421.566c1.856,0,3.41,1.523,3.41,3.409c0,1.856-1.554,3.409-3.41,3.409h-66.443c-1.856,0-3.382-1.553-3.382-3.409    c0-1.886,1.525-3.409,3.382-3.409H452.735z M370.243,436.783c1.884,0,3.409,1.524,3.409,3.409c0,1.857-1.525,3.41-3.409,3.41    H219.729c-1.885,0-3.41-1.553-3.41-3.41c0-1.885,1.525-3.409,3.41-3.409H370.243z M29.411,443.603    c-1.884,0-3.409-1.553-3.409-3.41c0-1.885,1.525-3.409,3.409-3.409h66.414c1.885,0,3.41,1.524,3.41,3.409    c0,1.857-1.525,3.41-3.41,3.41H29.411z M154.423,443.603c-1.885,0-3.41-1.553-3.41-3.41c0-1.885,1.525-3.409,3.41-3.409h30.27    c1.884,0,3.409,1.524,3.409,3.409c0,1.857-1.525,3.41-3.409,3.41H154.423z M111.874,428.385c-1.885,0-3.409-1.553-3.409-3.409    c0-1.886,1.524-3.409,3.409-3.409h233.561c1.884,0,3.409,1.523,3.409,3.409c0,1.856-1.525,3.409-3.409,3.409H111.874z     M367.25,200.979c19.098,0,36.395,7.732,48.896,20.262l0.194,0.193c12.391,12.502,20.069,29.715,20.069,48.703    c0,19.07-7.761,36.367-20.264,48.896c-12.501,12.501-29.798,20.262-48.896,20.262c-19.071,0-36.367-7.761-48.896-20.262    c-12.529-12.557-20.263-29.826-20.263-48.896c0-19.098,7.733-36.395,20.263-48.896l0.221-0.223    C331.049,208.628,348.264,200.979,367.25,200.979z" style="fill-rule:evenodd;clip-rule:evenodd;"/></g></g><g id="Layer_1"/></svg>